<?xml version="1.0" encoding="UTF-8"?>
<svg id="Layer_1" height="24px" data-name="Layer 1" xmlns="http://www.w3.org/2000/svg" viewBox="0 0 457.19 506.42">
  <path d="m132.39,292.63v47.29c145.22,45.17,34.81,42.07,185.3,5.31v-62.09c-93.67-3.91-121.36,23.07-52.82-74.47-66.03,9.44,7.42-58.39,15.39-83.27-11.04.75-31.17,1.17-23.94-15.27,20.54-34.87,41.1-69.76,61.57-104.69,19.75-32.38,65.64,89.63,81.18,104.06,8.23,16.5-11.52,17.76-23.32,16.58,7.73,23.51,79.83,91.97,16.76,82.59,68.19,98.64,37.07,70.18-54.52,74.47v59.3c22.76-1.51,130.88-4.45,118.16,31.71-43.05,83.88-136.24,133.54-229.31,132.24-92.98-.58-187.99-54.76-225.45-141.63-14.74-32.41,92.34-28.98,110.96-27.53v-44.6c-73.39-.45-117.3-88.87-68.07-145.32,7.16-5.26,7.74-13.7,10.24-21.22,11.39-43.96,62.29-77.63,103.13-46.75,22.33,14.76,29.45,39.38,37.89,62.79,55.36,54.42,13.34,150.08-63.15,150.48Zm-110.31,69.93c75.85,160.55,327.67,163.69,412.6,9.54-62.82-23.28-132.41-6.94-192.96,16.12,23.48,19.04,52.83,28.24,82.57,32.34,6.07.75,9.83,5.37,9.15,11.47-6,17.66-34.79.72-48.17.21-101.58-44.22-136.66-96.92-263.2-69.68Zm381.35-98.53c-7.66-21.92-71.14-82.27-12.72-74.42-5.8-23.22-79.57-91.69-17.64-83.84-15.21-25.49-30.09-50.42-45.03-75.45-15.1,25.24-30.04,50.2-45.15,75.45,60.48-8.82-11.45,60.93-17.95,83.55,10.28,1.21,32.59-3.29,24.9,15.16-12.41,19.95-23.98,39.67-36.7,59.55h150.31Zm-291.41-37.28c1.29-17.34.28-33.68.64-50.91-.62-13.89,20.41-13.9,19.71.15.01,11.65,0,22.53,0,34.29,9.66-7.77,16.21-18.3,27.41-22.47,8.36-1.56,14.2,10.68,7.2,16.32-27.19,26.1-39.99,26.93-34.52,68.54,70.54-4.48,88.67-80.12,43.31-125.29-5.85-25.7-20.06-56.23-49.65-59.25-31.09-3.2-50.23,27.92-55.84,54.51-43.04,53.17-34.85,120.71,41.78,130.09,4.79-21.9-13.45-31.49-26.42-45.47-10.15-9.43,4.11-23.53,13.58-13.48,4.08,4.05,8.08,8.17,12.79,12.96Z" style="stroke-width: 0px;"/>
</svg>