<svg id="Layer_1" height='30px' width='30px' data-name="Layer 1" xmlns="http://www.w3.org/2000/svg" viewBox="0 0 674.22 674.2">
  <path d="m674.22.86c-224.42.2-448.83.04-673.25.09-.08,224.42.16,448.84-.09,673.26C-1.04,450.57.88,224.6.22.2,224.83.83,449.78-1,674.22.86Z" style="fill: #fff; stroke-width: 0px;"/>
  <path d="m561.44,381.75c19.46.02,38.57-.04,57.95.01,6.39.03,9.47,3.09,9.62,9.41.67,6.09-1.56,12.47-8.68,12.17-19.66.03-39.26.02-58.93.02v34.39c11.06,1.8,66.05-4.66,66.84,4.63,3.2,6.91.65,18.41-8.9,17.09-19.37-.04-38.55-.05-57.95-.05v33.86c11.94,2.04,64.69-5.16,66.79,5.03,3.05,6.66.54,17.32-8.47,16.84-19.51-.07-38.9-.02-58.42-.02-1.17,27.56,7.72,35.9-26.89,33.6-6.92.52-10.71-4.25-10.65-10.71.01-124.98-.01-249.95,0-374.93h-115.46v45.02c11.59-.86,27.34-.33,27.09,14.95-.06,19.28-.11,38.56-.05,57.84.03,9.46-5.82,15.83-15.35,15.87-25.53.11-51.06.04-76.59.05-28.16.01-56.32.05-84.49.05-9.9,1.21-19.67-4.85-19.38-15.75-.03-19.4-.03-38.79.02-58.19,0-14.84,15.33-15.82,26.87-14.87v-45.02h-115.38c.06,124.15-.12,248.26.08,372.41.03,9.67-1.62,13.98-13.4,13.27-32.18,2.86-22.13-9.56-23.9-33.6-19.51-.01-38.56.02-57.97-.01-6.38-.02-9.65-3.3-9.73-9.69-.74-6.41,2.04-12.32,9.27-12.08,19.48-.02,38.86,0,58.35,0v-33.92c-11.32-1.81-65.77,4.67-67.05-4.73-3.11-6.66-.82-17.93,8.38-16.95,19.59.03,39.09-.02,58.69-.03v-34.36c-11.67-1.97-64.62,4.94-66.59-4.71-3.11-6.74-.38-17.7,8.72-16.9,19.33.03,38.59,0,57.92-.01v-218.87c-33.24-.57-45.57,7.24-41.86-34.16.07-6.9,4.64-12.01,11.57-12.14,15.23-.3,30.46-.29,45.69-.29,154.49.25,309.03-.56,463.5.32,15.96,2.65,9.62,22.72,10.72,34.15-2.02,19.59-28.64,9.85-41.97,12.19v218.81Zm-279.47-173.9h110.82v-44.69h-110.82v44.69Z" style="fill: #020202; stroke-width: 0px;"/>
</svg>