<svg xmlns="http://www.w3.org/2000/svg" height="24px" width="24px" viewBox="0 0 550.92 549.33">
  <path d="m284.26,549.3c-48.67.66-91.99-8.45-132.6-29.52-27.57-14.31-52.78-31.91-74.37-54.32-31.71-32.92-54.38-71.23-66.89-115.3-5.45-19.21-8.53-38.83-9.81-58.81-3.25-50.79,6.99-98.87,29.63-144.13,16.41-32.8,39.81-60.3,68.16-83.66,27.22-22.43,57.4-39.3,90.94-50.2,16.64-5.41,33.65-9.01,51.03-11.17,19.71-2.45,39.46-2.84,59.17-1.13,55.59,4.8,105.33,24.61,148.99,59.4,30.71,24.47,56.28,53.28,73.86,88.71,12.77,25.73,21.21,52.88,25.44,81.22,3.31,22.14,3.87,44.49,2.21,66.84-3.69,49.66-20.03,94.93-48.97,135.29-35.94,50.12-82.85,85.9-142.12,104.55-16.8,5.29-33.98,8.91-51.56,10.41-8.73.74-17.47,1.39-23.11,1.84Zm6.04-481.77c1.41.29,2.55.53,3.7.75,12.2,2.37,24.59,4.03,36.58,7.22,43.98,11.69,80.09,36.01,108.33,71.35,25.57,31.99,39.92,68.84,43.15,109.88,2.25,28.62-.45,56.71-9.86,83.83-17.98,51.82-51.06,91.16-99.24,117.58-11.94,6.55-24.27,12.36-37.58,15.6-8.09,1.97-15.05-2.29-17.37-10.11-2.28-7.7,1.37-15.1,8.98-18.16,5.82-2.34,11.73-4.48,17.47-7.01,14.58-6.42,28.22-14.43,40.29-24.64-8.84-8.82-17.6-17.56-26.42-26.36-20.02,15.21-43.09,23.18-67.88,26.7v104.25c66.97-4.84,123.72-31.56,167.86-81.15,49.77-55.9,69.47-122.5,60.12-197.09-14.45-115.2-117.2-205.51-228.13-208.61v35.99Zm-29.75-36.7C116.52,41.3,35.06,157.79,31.32,260.62h102.76c4.41-33,16.38-62.23,40.98-85.29,24.12-22.6,52.01-37.43,85.49-40.47V30.83ZM98.2,289.84c3.66,43.14,20.11,79.79,51.11,109.37,31.1,29.68,67.51,48.37,111.24,51.39v-36.34c-.42-.13-.73-.28-1.05-.32-16.79-1.97-32.96-6.41-47.99-14.05-26.64-13.53-46.9-34.01-62.2-59.51-.98-1.63-1.52-3.71-1.65-5.62-.44-6.63,3.67-12.66,9.7-14.67,6.85-2.28,13.43.02,17.78,6.2,4.15,5.9,8.29,11.8,12.22,17.39,9.01-8.94,17.85-17.72,26.73-26.52-19.83-31.45-16.58-70.51,6.54-93.97,22.59-22.92,63.94-32.6,97.91-8.76,8.8-8.71,17.48-17.3,26.85-26.58-7.78-4.69-15.21-10.45-23.58-13.97-21.5-9.04-43.88-11.55-67.1-7.32-34.76,6.33-59.92,25.93-77.47,55.65-10.6,17.96-13.4,38.28-14.19,58.86-.26,6.75-2.23,8.73-8.93,8.74-17.32.03-34.64,0-51.97,0-1.15,0-2.3,0-3.95,0Zm192.14-155.28c55.68,7.95,96.26,36.76,116.57,88.85,20.26,51.96,11.07,100.64-26,143.44,8.52,8.43,17.23,17.05,25.93,25.67,45.71-45.5,59.99-127.69,29.62-192.67-31.61-67.63-97.93-97.8-146.13-101v35.71ZM31.27,290.01c-.24,35.15,16.83,101.03,65.38,150.94,44.82,46.08,98.72,73.5,163.75,77.24v-37.43c-51.81-2.84-95.43-23.24-131.91-59.46-36.5-36.23-56.36-80.17-60.3-131.29H31.27Zm334.99-80.22c-9.04,9.05-17.87,17.89-26.72,26.75,9.5,16.98,11.66,35.36,9.06,51.13-5.83,35.33-37.14,59.52-70.71,60.26-13.96.31-26.99-2.93-39.23-9.61-.85-.46-2.64-.53-3.22.03-8.61,8.25-17.1,16.63-25.68,25.04,42.19,30.93,102.09,27.36,142.48-9.69,39.68-36.4,46.67-99.84,14.03-143.92Zm-135.1,62.96c-1.15,22.27,17.41,45.37,43.92,45,23.91-.33,44.64-19.53,44.58-41.75-.06-25-19.84-44.9-44.62-44.66-28.49.28-44.81,21.35-43.89,41.41Z" />
  <path d="m234.72,91.37c-.23,6.22-2.79,11-8.74,13.49-4.71,1.97-9.5,3.78-14.26,5.63-26.29,10.21-49.5,25.04-68.44,46.1-19.76,21.96-33.22,47.34-40.69,75.94-2.52,9.63-10.39,14.08-19.42,11.41-7-2.07-11.46-9.6-9.78-16.77,9.83-42.13,30.76-77.92,62.84-106.78,22.75-20.46,49.78-33.77,78.76-43.26,11.18-3.66,19.92,4.93,19.73,14.25Z" />
</svg>