<svg height="30px" xmlns="http://www.w3.org/2000/svg" viewBox="0 0 843.19 669.51">
  <path d="m319.87,167.01c-64.04.91-127.44,1.81-191.51,2.73v170.4c33.58,1.16,67.31,1.33,100.86.22,25.28-1.14,45.24,8.42,63.12,24.75,10.45,9.55,18.34,20.95,25.32,33.21,30.81,54.09,61.68,108.14,92.95,161.96,20.54,38.33,56.3,68.62,100.71,72.59,13.08.39,27.22,6.06,25.05,21.97-1.17,9.28-7.46,14.75-17.09,14.66-139.18-3.4-174.81-165.55-241.27-260.7-5.4-9.4-11.92-17.57-22.68-23.08-.3,77.61.6,155.1-.36,232.67-.58,8.27-4.95,12.85-13.16,13.41-10.18.48-25.41.3-24.37-13.61.01-33.9.29-66.87.2-100.96h-89.13c-.02,33.36-.06,66.76-.09,100.12,0,9.6-3.8,13.97-13.41,14.09-15.33.19-23.94.02-23.88-22,.12-45.65-.88-91.3-2.5-137.21-16.72,48.56-33.57,97.07-50.41,145.58-3.71,10.66-8.11,13.56-19.39,13.2-10.79-.23-23.03-3.25-17.42-16.73,28.09-82.13,60.64-162.69,88.12-245.04,3.6-65.69-.8-132.3.12-198.3-9.26-.14-18.74-1.43-21.84-11.23-2.25-6.47-1.32-12.49,3.75-17.51C116.87,97.29,162.74,52.89,208.39,8.3c11.72-11.41,21.05-10.87,32.66.5,45.26,44.52,91.44,88.12,136.11,133.25,4.78,4.75,6.04,10.56,3.87,16.53-3.42,9.3-14.28,8.69-22.7,9.08-.34,235.96-10.31,67.29,73.9,225.73,50.26,70.95,77.48,183.77,177.34,195.05,29.29,3.96,42.93,27.55,40.5,54.22-.61,10.73-3.87,23.86-16.98,23.22-13.47.75-17.01-13.44-17.45-24.49-1.25-11-5.7-15.16-16.48-17.33-124.31-17.34-158.89-156.41-220.27-246.49-12.25-21.18-29.18-36.04-52.79-42.94-5.04-1.47-6.04-5.22-6.05-9.66-.21-53.21-.18-103.87-.17-157.96Zm-102.44,215.2h-89.15v97.91h89.15v-97.91Z"/>
  <path d="m744.01,133.09h-33.63v266.84c11.81,1.5,14.68,2.39,14.22,15.91.05,6.5.29,13,.16,19.49.47,13.29-13.92,11.33-23.2,11.22-54.16.09-108.32.17-162.47.26-7.92.01-12.16-3.74-12.51-11.68-.34-7.65-.32-15.33-.39-22.99-.65-9.37,6.55-11.63,14.49-11.9V133.12h-35.21c-12.2,89.91-24.39,179.72-36.71,270.55-10.1-15.45-17.32-32.24-27.23-47.77-4.32-7.06-2.68-13.74-1.84-20.72,7.53-63.14,15.63-126.21,24.16-189.22,4.71-19.51-1.6-54.64,27.25-53.69,88.32-.08,176.64-.11,264.96-.09,14.78,0,22.71,6.46,24.84,21.17,3.24,22.4,5.83,44.89,8.64,67.34,8.68,69.53,17.26,139.07,26.03,208.58,7.75,60.59,15.46,121.18,22.96,181.8,1.41,11.23,2.91,22.44,4.49,33.65,1.18,8.38-2.88,15.13-11.07,16.84-11.42,3.03-26.18.13-27.48-13.82-6.75-52-13.49-103.99-20.17-156-13.64-106.28-26.83-212.31-40.26-318.66Zm-61.44,267.21V133.09h-115.07v267.21h115.07Z"/>
  <path d="m262.46,254.2c1.04,58.53,3.05,40.77-65,43.81-9.09-.01-13.07-4.11-13.09-13.19-.05-20.32-.06-40.65-.05-60.97,0-6.85,3.78-11.08,10.67-11.11,19.16-.11,38.32-.03,57.47.21,6.84.08,10.08,3.82,10.11,10.78.04,10.16,0,20.32,0,30.49h-.12Z"/>
</svg>